<mxfile host="app.diagrams.net" modified="2024-03-06T14:31:34.549Z" agent="Mozilla/5.0 (X11; Linux x86_64) AppleWebKit/537.36 (KHTML, like Gecko) Chrome/122.0.0.0 Safari/537.36" version="24.0.2" etag="sSa39BwPfZ7lDch1dkO6" type="github">
  <diagram name="Page-1" id="TTlbSqoGFx943RdkP0pC">
    <mxGraphModel>
      <root>
        <mxCell id="0" />
        <mxCell id="1" parent="0" />
      </root>
    </mxGraphModel>
  </diagram>
</mxfile>
